<svg width="1080" height="181" viewBox="0 0 1080 181" fill="none" xmlns="http://www.w3.org/2000/svg">
<path fill-rule="evenodd" clip-rule="evenodd" d="M288.606 -0.000244141L197.238 178.286H110.739L148.556 105.416H146.827C115.032 146.69 67.5931 173.861 0 180.027V106.448C0 106.448 43.2409 103.894 68.661 77.1688H0V0.00117788H78.5157L77.1676 63.4704L78.8996 63.4633L110.433 0.00117788H172.839L168.793 63.068L170.525 63.0651L203.241 -0.000244141H288.606Z" fill="white"/>
<path d="M790.78 160.155H815.632V17.5024H790.78V160.155Z" fill="white"/>
<path fill-rule="evenodd" clip-rule="evenodd" d="M653.772 158.699C659.174 160.944 664.666 162.067 670.25 162.067C679.475 162.067 687.728 159.822 695.011 155.33C702.294 150.839 707.938 144.649 711.944 136.759C715.949 128.809 717.952 119.796 717.952 109.722C717.952 99.647 715.889 90.6344 711.762 82.684C707.635 74.7335 701.9 68.5735 694.556 64.2037C687.213 59.7733 678.868 57.5885 669.521 57.6492C663.574 57.6492 657.869 58.8023 652.407 61.1085C646.944 63.4148 642.393 66.6921 638.751 70.9404C638.47 71.2638 638.197 71.5905 637.932 71.9205V17.5935H612.988V160.155H637.75L637.7 146.837C638.341 147.622 639.025 148.39 639.753 149.14C643.698 153.206 648.371 156.393 653.772 158.699ZM679.262 135.667C675.196 138.155 670.553 139.399 665.334 139.399C660.175 139.399 655.441 138.125 651.132 135.576C646.823 132.966 643.394 129.416 640.845 124.925C638.357 120.433 637.113 115.335 637.113 109.631C637.052 103.926 638.266 98.8277 640.754 94.3366C643.303 89.7848 646.732 86.2647 651.041 83.7764C655.35 81.2274 660.114 79.9833 665.334 80.044C670.553 79.9833 675.196 81.1971 679.262 83.6854C683.389 86.113 686.545 89.6027 688.73 94.1545C690.975 98.6456 692.098 103.804 692.098 109.631C692.098 115.457 690.975 120.616 688.73 125.107C686.545 129.598 683.389 133.118 679.262 135.667Z" fill="white"/>
<path d="M324.611 26.1508H353.014L378.422 118.941L405.451 26.1508H429.12L458.434 117.079L482.831 26.1508H508.867L470.45 160.155H445.961L416.154 71.3264L388.791 160.155H364.029L324.611 26.1508Z" fill="white"/>
<path fill-rule="evenodd" clip-rule="evenodd" d="M550.811 162.522C540.918 162.583 531.997 160.398 524.046 155.968C516.156 151.477 509.936 145.256 505.384 137.305C500.893 129.355 498.647 120.282 498.647 110.086C498.647 100.193 500.954 91.2413 505.566 83.2302C510.178 75.2191 516.43 68.9679 524.319 64.4768C532.209 59.9858 541.009 57.7402 550.72 57.7402C561.644 57.7402 571.203 60.1678 579.396 65.0231C587.65 69.8783 593.81 76.7667 597.876 85.6882C602.003 94.549 603.49 104.715 602.337 116.185H524.358C524.576 120.755 525.716 124.912 527.779 128.657C530.085 132.784 533.302 136.001 537.428 138.307C541.555 140.613 546.168 141.766 551.266 141.766C555.15 141.705 558.761 141.038 562.099 139.763C565.437 138.428 568.259 136.638 570.565 134.392C572.932 132.147 574.601 129.598 575.572 126.745H601.609C600.031 133.725 596.875 139.945 592.141 145.408C587.407 150.809 581.459 155.027 574.298 158.062C567.136 161.096 559.307 162.583 550.811 162.522ZM527.87 91.1503C526.415 93.6865 525.407 96.4176 524.847 99.3435H576.537C576.162 95.6471 575.021 92.2788 573.114 89.2386C570.93 85.6578 567.956 82.8964 564.193 80.9543C560.43 78.9515 556.182 77.9501 551.448 77.9501C546.411 77.9501 541.829 79.1033 537.702 81.4095C533.575 83.7157 530.297 86.9627 527.87 91.1503Z" fill="white"/>
<path d="M736.25 59.834C736.25 51.7015 738.101 44.4793 741.804 38.1675C745.506 31.795 750.695 26.8488 757.371 23.3287C764.107 19.748 771.967 17.8969 780.949 17.7755V39.8972C776.761 39.9579 773.181 40.8379 770.207 42.5373C767.294 44.1759 765.048 46.5732 763.47 49.7291C762.017 52.6345 761.233 56.0028 761.118 59.834H780.403V80.8633H761.103V160.155H736.25V80.8633H720.228V59.834H736.25Z" fill="white"/>
<path fill-rule="evenodd" clip-rule="evenodd" d="M878.811 162.34C868.676 162.34 859.602 160.125 851.591 155.695C843.641 151.204 837.39 145.013 832.838 137.123C828.347 129.173 826.101 120.16 826.101 110.086C826.101 99.9504 828.347 90.9075 832.838 82.9571C837.39 74.946 843.641 68.7252 851.591 64.2948C859.602 59.8644 868.676 57.6492 878.811 57.6492C889.007 57.6492 898.111 59.8644 906.122 64.2948C914.194 68.7252 920.475 74.9156 924.966 82.8661C929.457 90.8165 931.733 99.8897 931.794 110.086C931.733 120.16 929.457 129.173 924.966 137.123C920.536 145.013 914.285 151.204 906.213 155.695C898.141 160.125 889.007 162.34 878.811 162.34ZM878.811 139.49C884.152 139.49 888.886 138.276 893.013 135.849C897.14 133.361 900.326 129.901 902.571 125.471C904.817 120.98 905.94 115.851 905.94 110.086C905.94 104.259 904.817 99.1008 902.571 94.6097C900.326 90.1186 897.14 86.6592 893.013 84.2316C888.886 81.7433 884.152 80.4991 878.811 80.4991C873.531 80.4991 868.827 81.7433 864.7 84.2316C860.634 86.6592 857.478 90.1186 855.233 94.6097C852.987 99.1008 851.895 104.259 851.955 110.086C851.955 115.851 853.078 120.98 855.324 125.471C857.63 129.901 860.786 133.361 864.791 135.849C868.858 138.276 873.531 139.49 878.811 139.49Z" fill="white"/>
<path d="M958.649 59.834H930.975L960.925 160.155H985.141L1004.84 96.0803L1026.11 160.155H1049.96L1080 59.834H1054.97L1037.93 122.278L1019.1 59.834H994.882L976.141 123.653L958.649 59.834Z" fill="white"/>
</svg>
