<?xml version="1.0" encoding="UTF-8"?>
<svg width="1920" height="390" viewBox="0 0 1920 390" fill="none" xmlns="http://www.w3.org/2000/svg">
  <defs>
    <linearGradient id="bgGradient" x1="0" y1="0" x2="1920" y2="390" gradientUnits="userSpaceOnUse">
      <stop stop-color="#2E3A59"/>
      <stop offset="1" stop-color="#4CA1AF"/>
    </linearGradient>
    <radialGradient id="radial1" cx="0.6" cy="0.4" r="0.7">
      <stop offset="0%" stop-color="#F9D423"/>
      <stop offset="100%" stop-color="#4CA1AF" stop-opacity="0"/>
    </radialGradient>
    <radialGradient id="radial2" cx="0.2" cy="0.7" r="0.5">
      <stop offset="0%" stop-color="#EECDA3"/>
      <stop offset="100%" stop-color="#2E3A59" stop-opacity="0"/>
    </radialGradient>
    <radialGradient id="radial3" cx="0.8" cy="0.2" r="0.4">
      <stop offset="0%" stop-color="#A1FFCE"/>
      <stop offset="100%" stop-color="#4CA1AF" stop-opacity="0"/>
    </radialGradient>
  </defs>
  <rect width="1920" height="390" fill="url(#bgGradient)"/>
  <ellipse cx="1400" cy="120" rx="320" ry="90" fill="url(#radial1)"/>
  <ellipse cx="400" cy="320" rx="280" ry="80" fill="url(#radial2)"/>
  <ellipse cx="1600" cy="60" rx="180" ry="60" fill="url(#radial3)"/>
  <!-- Abstract AI nodes and connections -->
  <g stroke="#FFF" stroke-width="2" opacity="0.14">
    <circle cx="320" cy="120" r="30"/>
    <circle cx="600" cy="180" r="24"/>
    <circle cx="900" cy="90" r="20"/>
    <circle cx="1200" cy="210" r="26"/>
    <circle cx="1500" cy="160" r="34"/>
    <circle cx="1700" cy="320" r="22"/>
    <line x1="320" y1="120" x2="600" y2="180"/>
    <line x1="600" y1="180" x2="900" y2="90"/>
    <line x1="900" y1="90" x2="1200" y2="210"/>
    <line x1="1200" y1="210" x2="1500" y2="160"/>
    <line x1="1500" y1="160" x2="1700" y2="320"/>
    <line x1="320" y1="120" x2="900" y2="90"/>
    <line x1="600" y1="180" x2="1200" y2="210"/>
    <line x1="900" y1="90" x2="1500" y2="160"/>
    <line x1="1200" y1="210" x2="1700" y2="320"/>
  </g>
  <!-- Decorative AI circuit pattern -->
  <g stroke="#FFF" stroke-width="1" opacity="0.09">
    <rect x="100" y="60" width="180" height="80" rx="18"/>
    <rect x="1720" y="200" width="120" height="60" rx="12"/>
    <rect x="900" y="300" width="220" height="40" rx="8"/>
    <rect x="1400" y="260" width="180" height="50" rx="10"/>
  </g>
</svg>
