<?xml version="1.0" encoding="UTF-8"?>
<svg width="1920" height="390" viewBox="0 0 1920 390" fill="none" xmlns="http://www.w3.org/2000/svg">
  <defs>
    <linearGradient id="bgGradient" x1="0" y1="0" x2="1920" y2="390" gradientUnits="userSpaceOnUse">
      <stop stop-color="#232526"/>
      <stop offset="1" stop-color="#FFD452"/>
    </linearGradient>
    <radialGradient id="radial1" cx="0.8" cy="0.2" r="0.7">
      <stop offset="0%" stop-color="#FFEDBC"/>
      <stop offset="100%" stop-color="#FFD452" stop-opacity="0"/>
    </radialGradient>
    <radialGradient id="radial2" cx="0.3" cy="0.8" r="0.6">
      <stop offset="0%" stop-color="#FFC371"/>
      <stop offset="100%" stop-color="#232526" stop-opacity="0"/>
    </radialGradient>
    <radialGradient id="radial3" cx="0.5" cy="0.5" r="0.5">
      <stop offset="0%" stop-color="#FFB347"/>
      <stop offset="100%" stop-color="#232526" stop-opacity="0"/>
    </radialGradient>
  </defs>
  <rect width="1920" height="390" fill="url(#bgGradient)"/>
  <ellipse cx="1500" cy="120" rx="320" ry="90" fill="url(#radial1)"/>
  <ellipse cx="500" cy="320" rx="280" ry="80" fill="url(#radial2)"/>
  <ellipse cx="960" cy="195" rx="500" ry="130" fill="url(#radial3)"/>
  <!-- Abstract "Amazon" box shapes and upward arrows -->
  <g opacity="0.17">
    <rect x="350" y="140" width="80" height="60" rx="12" fill="#FFB347"/>
    <rect x="1500" y="200" width="60" height="60" rx="10" fill="#FFC371"/>
    <polygon points="900,250 940,320 860,320" fill="#FFEDBC"/>
    <rect x="1100" y="100" width="90" height="45" rx="8" fill="#FFD452"/>
  </g>
  <!-- Decorative upward arrows for "growth" -->
  <g stroke="#232526" stroke-width="4" opacity="0.13">
    <polyline points="400,320 600,180 900,250 1200,120 1500,200 1700,80" fill="none"/>
    <polygon points="1700,80 1680,120 1720,120" fill="#FFD452" opacity="0.33"/>
  </g>
</svg>
