<svg width="1920" height="390" viewBox="0 0 1920 390" fill="none" xmlns="http://www.w3.org/2000/svg">
  <rect width="1920" height="390" fill="#F6F8FB"/>
  <g>
    <rect x="220" y="80" width="340" height="180" rx="32" fill="#1E88E5" fill-opacity="0.15"/>
    <rect x="1360" y="110" width="340" height="180" rx="32" fill="#43A047" fill-opacity="0.15"/>
    <ellipse cx="390" cy="170" rx="120" ry="80" fill="url(#seoGradient)"/>
    <ellipse cx="1530" cy="200" rx="120" ry="80" fill="url(#ppcGradient)"/>
    <g opacity="0.7">
      <path d="M340 200 C370 160, 410 140, 460 170" stroke="#1E88E5" stroke-width="5" fill="none"/>
      <circle cx="340" cy="200" r="10" fill="#1E88E5"/>
      <circle cx="460" cy="170" r="10" fill="#1E88E5"/>
      <path d="M1470 220 C1500 260, 1550 250, 1590 210" stroke="#43A047" stroke-width="5" fill="none"/>
      <circle cx="1470" cy="220" r="10" fill="#43A047"/>
      <circle cx="1590" cy="210" r="10" fill="#43A047"/>
    </g>
    <rect x="900" y="80" width="120" height="230" rx="28" fill="#FFD600" fill-opacity="0.25"/>
    <rect x="940" y="120" width="40" height="150" rx="12" fill="#FFD600"/>
    <path d="M960 120 v-30 m0 180 v30" stroke="#FFD600" stroke-width="8" stroke-linecap="round"/>
    <ellipse cx="960" cy="305" rx="18" ry="8" fill="#FFD600" fill-opacity="0.6"/>
    <ellipse cx="960" cy="85" rx="18" ry="8" fill="#FFD600" fill-opacity="0.6"/>
    <text x="360" y="320" font-size="48" font-family="Arial, Helvetica, sans-serif" fill="#1E88E5" opacity="0.5">SEO</text>
    <text x="1500" y="350" font-size="48" font-family="Arial, Helvetica, sans-serif" fill="#43A047" opacity="0.5">PPC</text>
    <text x="920" y="70" font-size="36" font-family="Arial, Helvetica, sans-serif" fill="#FFD600" opacity="0.7">VS</text>
  </g>
  <defs>
    <linearGradient id="seoGradient" x1="270" y1="90" x2="510" y2="250" gradientUnits="userSpaceOnUse">
      <stop stop-color="#1E88E5"/>
      <stop offset="1" stop-color="#90CAF9"/>
    </linearGradient>
    <linearGradient id="ppcGradient" x1="1410" y1="120" x2="1650" y2="280" gradientUnits="userSpaceOnUse">
      <stop stop-color="#43A047"/>
      <stop offset="1" stop-color="#A5D6A7"/>
    </linearGradient>
  </defs>
</svg>
