<svg width="1920" height="390" viewBox="0 0 1920 390" fill="none" xmlns="http://www.w3.org/2000/svg">
  <defs>
    <linearGradient id="bg-gradient" x1="0" y1="0" x2="1920" y2="390" gradientUnits="userSpaceOnUse">
      <stop stop-color="#1b2845"/>
      <stop offset="1" stop-color="#4fc3f7"/>
    </linearGradient>
    <linearGradient id="circle-gradient" x1="0" y1="0" x2="1" y2="1">
      <stop stop-color="#fff" stop-opacity="0.12"/>
      <stop offset="1" stop-color="#fff" stop-opacity="0.03"/>
    </linearGradient>
  </defs>
  <rect width="1920" height="390" fill="url(#bg-gradient)"/>
  <!-- Abstract algorithm/shift shapes: arrows, circles, and waves -->
  <circle cx="400" cy="200" r="160" fill="url(#circle-gradient)"/>
  <circle cx="1520" cy="120" r="100" fill="url(#circle-gradient)"/>
  <g opacity="0.09">
    <rect x="1300" y="60" width="370" height="36" rx="18" fill="#fff"/>
    <rect x="1350" y="180" width="270" height="28" rx="14" fill="#fff"/>
    <rect x="1200" y="300" width="180" height="22" rx="11" fill="#fff"/>
  </g>
  <!-- Decorative shifting arrows -->
  <polygon points="700,330 720,370 740,330" fill="#fff" opacity="0.13"/>
  <polygon points="1700,90 1720,130 1740,90" fill="#fff" opacity="0.13"/>
  <!-- Subtle wave pattern for "shifts" -->
  <path d="M0 320 Q 480 390 960 320 T 1920 320" stroke="#fff" stroke-width="10" fill="none" opacity="0.07"/>
  <!-- Dotted grid for tech feel -->
  <g opacity="0.04">
    <circle cx="350" cy="80" r="4" fill="#fff"/>
    <circle cx="380" cy="80" r="4" fill="#fff"/>
    <circle cx="410" cy="80" r="4" fill="#fff"/>
    <circle cx="440" cy="80" r="4" fill="#fff"/>
    <circle cx="470" cy="80" r="4" fill="#fff"/>
    <circle cx="500" cy="80" r="4" fill="#fff"/>
  </g>
</svg>
